<?xml version="1.0" encoding="utf-8"?>
<!-- Generator: Adobe Illustrator 24.1.1, SVG Export Plug-In . SVG Version: 6.00 Build 0)  -->
<svg version="1.1" id="레이어_1" xmlns="http://www.w3.org/2000/svg" xmlns:xlink="http://www.w3.org/1999/xlink" x="0px"
	 y="0px" viewBox="0 0 400 400" style="enable-background:new 0 0 400 400;" xml:space="preserve">
<style type="text/css">
	.st0{clip-path:url(#SVGID_1_);}
	.st1{clip-path:url(#SVGID_2_);}
</style>
<g>
	<g>
		<g>
			<path d="M199.65,4C88.09,4,37.01,35.02,37.01,35.02v142.78c0,161.89,147.75,211.43,162.64,219.21
				c14.9-7.78,162.64-57.31,162.64-219.21V35.02C362.28,35.02,311.2,4,199.65,4z M352.53,177.79c0,60.23-21.26,111.25-63.17,151.63
				c-33.82,32.57-71.32,48.85-87.34,55.8c-0.85,0.38-1.65,0.72-2.37,1.05c-0.74-0.33-1.52-0.67-2.39-1.05
				c-16.01-6.94-53.51-23.23-87.33-55.8c-41.91-40.38-63.16-91.4-63.16-151.63V40.95c14.72-7.08,64.39-27.2,152.88-27.2
				c88.45,0,138.11,20.1,152.88,27.2V177.79z"/>
		</g>
	</g>
	<g>
		<g>
			<defs>
				<polygon id="SVGID_7_" points="67.03,102.2 80.32,116.42 164.65,120.06 89.11,125.82 96.15,133.34 171.48,135.68 103.09,140.78 
					111.89,150.19 178.28,151.3 117.06,155.74 124.45,163.63 177.54,163.63 154.12,176.16 173.86,176.16 188.43,163.63 
					192.81,163.63 179.97,176.16 195.74,176.16 202.56,162.98 202.56,123.18 180.46,102.2 				"/>
			</defs>
			<use xlink:href="#SVGID_7_"  style="overflow:visible;"/>
			<clipPath id="SVGID_1_">
				<use xlink:href="#SVGID_7_"  style="overflow:visible;"/>
			</clipPath>
			<rect x="67.03" y="102.2" class="st0" width="135.53" height="73.96"/>
		</g>
		<g>
			<defs>
				<polygon id="SVGID_10_" points="224.65,102.2 202.56,123.18 202.56,162.98 209.39,176.16 225.15,176.16 212.32,163.63 
					216.7,163.63 231.27,176.16 251.01,176.16 227.58,163.63 280.68,163.63 288.05,155.74 226.84,151.3 293.24,150.19 
					302.03,140.78 233.66,135.68 308.99,133.34 316.01,125.82 240.47,120.06 324.8,116.42 338.1,102.2 				"/>
			</defs>
			<use xlink:href="#SVGID_10_"  style="overflow:visible;"/>
			<clipPath id="SVGID_2_">
				<use xlink:href="#SVGID_10_"  style="overflow:visible;"/>
			</clipPath>
			<rect x="202.56" y="102.2" class="st1" width="135.54" height="73.96"/>
		</g>
		<rect x="123.27" y="182.99" width="79.28" height="7.78"/>
		<rect x="202.55" y="182.99" width="80.16" height="7.78"/>
		<polygon points="202.56,111.47 185.42,93.68 151.23,93.68 202.56,78.88 		"/>
		<polygon points="202.56,111.47 219.72,93.68 253.92,93.68 202.56,78.88 		"/>
		<polygon points="143.32,88.77 202.56,69.3 202.56,60.28 120.51,88.77 		"/>
		<polygon points="261.81,88.77 202.56,69.3 202.56,60.28 284.61,88.77 		"/>
		<polygon points="136.89,253.5 137.1,253.5 156.31,223.3 172.8,223.3 152.31,255.6 175.11,298.7 158,298.7 142.49,267.75 
			136.89,276.31 136.89,298.7 121.68,298.7 121.68,223.3 136.89,223.3 		"/>
		<path d="M206.33,223.3c3.1,0,5.97,0.31,8.61,0.94c2.64,0.64,4.91,1.69,6.81,3.17c1.91,1.48,3.39,3.44,4.44,5.91
			c1.05,2.45,1.58,5.5,1.58,9.08c0,4.1-0.96,7.59-2.86,10.52c-1.9,2.92-4.76,4.9-8.56,5.96v0.21c4.23,0.56,7.59,2.38,10.03,5.39
			c2.48,3.04,3.71,7.08,3.71,12.14c0,2.97-0.38,5.78-1.16,8.46c-0.77,2.67-2.11,5.01-3.96,7.02c-1.87,1.99-4.3,3.6-7.28,4.79
			c-3,1.19-6.71,1.79-11.14,1.79h-25.67V223.3H206.33z M200.42,254.24c4.21,0,7.31-0.75,9.24-2.27c1.92-1.5,2.89-4.05,2.89-7.66
			c0-3.59-0.87-6.11-2.64-7.59c-1.76-1.48-4.55-2.23-8.34-2.23h-5.5v19.75H200.42z M202,287.51c3.65,0,6.62-0.81,8.86-2.43
			c2.26-1.64,3.38-4.62,3.38-9c0-2.16-0.3-3.99-0.89-5.43c-0.61-1.45-1.41-2.6-2.43-3.48c-1.02-0.87-2.23-1.5-3.64-1.86
			c-1.43-0.35-2.96-0.52-4.66-0.52h-6.55v22.71H202z"/>
		<path d="M251.37,275.89c0,1.9,0.12,3.64,0.36,5.21c0.25,1.6,0.71,2.97,1.37,4.12c0.67,1.16,1.6,2.08,2.74,2.75
			c1.16,0.67,2.63,1,4.39,1c1.83,0,3.3-0.33,4.44-1c1.13-0.67,2.02-1.58,2.69-2.75c0.67-1.15,1.12-2.52,1.37-4.12
			c0.24-1.57,0.37-3.31,0.37-5.21V223.3h15.2v52.59c0,4.78-0.66,8.74-2.01,11.88c-1.33,3.14-3.13,5.61-5.38,7.43
			c-2.25,1.84-4.83,3.07-7.69,3.69c-2.91,0.64-5.9,0.96-8.99,0.96c-3.1,0-6.1-0.27-8.97-0.83c-2.9-0.56-5.47-1.72-7.73-3.45
			c-2.24-1.72-4.04-4.17-5.37-7.32c-1.35-3.17-2-7.31-2-12.36V223.3h15.2V275.89z"/>
	</g>
</g>
</svg>
