<?xml version="1.0" encoding="utf-8"?>
<!-- Generator: Adobe Illustrator 24.1.1, SVG Export Plug-In . SVG Version: 6.00 Build 0)  -->
<svg version="1.1" id="레이어_1" xmlns="http://www.w3.org/2000/svg" xmlns:xlink="http://www.w3.org/1999/xlink" x="0px"
	 y="0px" viewBox="0 0 400 200" style="enable-background:new 0 0 400 200;" xml:space="preserve">
<style type="text/css">
	.st0{fill:#FFFFFF;}
</style>
<g>
	<polygon class="st0" points="400.2,65.95 232.79,65.95 200.19,96.9 167.58,65.95 0.2,65.95 19.81,86.92 144.25,92.3 32.78,100.8 
		43.17,111.9 154.32,115.34 53.41,122.88 66.39,136.76 164.36,138.39 74.02,144.94 84.94,156.59 163.28,156.59 128.71,175.08 
		157.84,175.08 179.34,156.59 185.8,156.59 166.86,175.08 190.13,175.08 200.19,155.63 210.26,175.08 233.52,175.08 214.59,156.59 
		221.05,156.59 242.56,175.08 271.69,175.08 237.11,156.59 315.47,156.59 326.35,144.94 236.02,138.39 334,136.76 346.98,122.88 
		246.08,115.34 357.25,111.9 367.6,100.8 256.13,92.3 380.56,86.92 	"/>
	<polygon class="st0" points="83.19,185.16 83.19,196.63 200.18,196.63 318.46,196.63 318.46,185.16 200.18,185.16 	"/>
	<polygon class="st0" points="174.89,53.37 200.2,79.63 225.51,53.37 275.98,53.37 200.2,31.54 124.44,53.37 	"/>
	<polygon class="st0" points="200.19,17.39 200.19,4.08 79.11,46.12 112.78,46.12 	"/>
	<polygon class="st0" points="321.26,46.12 200.2,4.08 200.2,17.39 287.63,46.12 	"/>
</g>
</svg>
